<svg width="200" height="40" viewBox="0 0 200 40" fill="none" xmlns="http://www.w3.org/2000/svg">
<path d="M107.251 25.6591C108.695 23.616 110.385 21.9162 111.878 20.0201C113.207 18.3366 114.634 16.7512 116.242 15.3292C117.21 14.4629 118.358 13.9889 119.654 13.9725C121.032 13.9398 122.394 13.9725 123.805 13.9725C123.805 14.4465 123.395 14.5773 123.165 14.8225C119.999 18.1241 116.947 21.5402 114.043 25.0707C113.764 25.414 113.518 25.6755 113.928 26.1658C116.143 28.8137 118.243 31.5597 120.737 33.9624C121.902 35.0902 123.116 36.1526 124.674 36.741C125.167 36.9208 125.167 37.1333 124.953 37.6236C124.133 39.4543 121.935 39.8138 120.114 39.4379C118.653 39.1274 117.505 38.2938 116.504 37.215C114.273 34.796 112.189 32.2461 110.139 29.68C109.187 28.4868 108.186 27.3263 107.251 26.0841C106.939 26.4437 107.054 26.7543 107.054 27.0485C107.054 30.8732 107.038 34.6815 107.071 38.5062C107.071 39.2418 106.857 39.4216 106.136 39.4379C102.379 39.4869 101.164 38.3265 101.148 34.5671C101.132 25.4957 101.148 16.4243 101.115 7.35283C101.115 6.51924 101.378 6.27407 102.165 6.35579C102.887 6.42117 103.642 6.29041 104.364 6.48655C106.103 6.96055 107.038 8.18642 107.038 10.0661C107.054 14.8878 107.038 19.7096 107.054 24.5477C107.071 24.8582 106.956 25.2015 107.251 25.6591Z" fill="white"/>
<path d="M26.4353 15.3619C24.3189 16.3589 22.2189 17.3396 20.1025 18.3366C19.7416 18.5001 19.3971 18.7126 19.0525 18.8924C17.3955 19.7913 17.4611 19.775 17.8057 21.671C18.7736 27.0812 20.2502 32.3606 21.3822 37.7217C21.4314 37.9342 21.4642 38.1467 21.4642 38.3591C21.5299 39.5196 20.9392 40.0754 19.7744 39.9283C18.7572 39.7975 17.9861 39.1601 17.2971 38.4572C14.0487 35.0902 10.8167 31.7231 7.56825 28.3397C6.76435 27.5061 6.76436 27.5061 5.97687 28.3724C4.66438 29.7944 3.6636 31.4289 2.87611 33.1942C2.74486 33.472 2.71204 33.9133 2.26908 33.9133C1.89174 33.9133 1.69486 33.5701 1.5308 33.2922C0.61206 31.7721 0.267533 30.0723 0.087066 28.3397C-0.372305 23.9429 1.02221 20.0528 3.41751 16.4406C4.33625 15.0513 5.35343 13.7274 6.6003 12.5342C6.3542 13.4822 6.10811 14.4302 5.86202 15.3782C5.68155 16.032 5.63233 16.7021 5.68155 17.3723C5.76358 18.7943 6.8792 19.5625 8.24091 19.1375C9.38934 18.7779 10.2753 18.0424 11.1776 17.3069C12.5721 16.1628 13.901 14.9369 15.4924 14.0706C16.3947 13.5803 17.3299 13.2534 18.3635 13.2043C22.4978 13.0082 26.6322 13.3678 30.7665 13.3187C30.8157 13.3187 30.8649 13.3678 31.029 13.4495C30.0939 14.0543 29.0931 14.3321 28.1087 14.6754C27.5673 14.9369 26.9931 15.133 26.4353 15.3619Z" fill="white"/>
<path d="M123.854 27.2445C123.854 18.4183 130.695 13.0571 138.931 13.7436C141.228 13.9398 143.246 14.9041 144.28 17.1924C144.772 18.2712 144.624 19.399 144.624 20.5268C144.624 21.0171 144.329 20.87 144.083 20.6739C141.884 19.0394 139.358 18.7615 136.749 18.9576C132.549 19.2845 129.432 23.2564 130.006 27.4243C130.351 29.9087 131.302 32.0663 133.517 33.4719C135.453 34.7141 137.619 34.7795 139.817 34.469C141.31 34.2565 142.754 33.8642 144.001 32.9489C144.362 32.6874 144.509 32.7528 144.558 33.2104C144.919 36.6755 143.23 38.8658 139.768 39.6013C133.501 40.9252 127.086 37.5255 124.756 31.8211C124.116 30.2847 123.788 28.6829 123.854 27.2445Z" fill="white"/>
<path d="M9.56959 8.52965C5.97665 10.7362 3.48293 13.9071 1.18607 17.5194C0.431389 15.2311 0.464197 13.2043 1.36653 11.2102C1.56341 10.7689 1.92435 10.491 2.36731 10.3112C3.58136 9.80456 4.779 9.26517 6.00946 8.82386C6.56727 8.62772 6.96102 8.30083 7.30555 7.85951C9.96334 4.57418 13.2774 2.13879 17.0344 0.259126C17.3625 0.0956765 17.7726 -0.165842 18.0351 0.144711C18.232 0.389885 17.9039 0.749473 17.7398 1.04368C16.9687 2.51472 16.5422 4.10018 16.3453 5.75102C16.2633 6.42116 16.4602 6.69902 17.182 6.64999C20.939 6.35578 24.7124 6.45385 28.4694 6.73171C30.4218 6.87882 32.3741 7.05861 34.2444 7.66337C35.4092 8.03931 35.9998 8.70945 35.9834 9.52669C35.967 10.5237 35.2287 11.3573 34.0967 11.7333C32.7842 12.1582 31.4389 12.0928 30.0936 12.0765C26.5171 12.0275 22.9242 11.9948 19.3476 11.8804C16.7062 11.7986 14.4258 12.6649 12.3586 14.2013C11.5219 14.8224 10.7016 15.4436 9.83209 16.0156C9.22507 16.4079 8.5196 16.8492 7.79773 16.3262C7.04305 15.7868 7.32195 15.0022 7.48601 14.2994C7.86335 12.6976 8.50319 11.1775 9.12662 9.65745C9.29068 9.29786 9.42193 8.90559 9.56959 8.52965Z" fill="white"/>
<path d="M187.708 20.1345C187.708 15.8685 187.724 11.5861 187.691 7.32008C187.691 6.53553 187.921 6.27401 188.676 6.35573C189.168 6.40477 189.66 6.37208 190.152 6.40477C192.252 6.53553 193.647 7.9085 193.663 10.0007C193.696 16.8982 193.68 23.7958 193.696 30.6933C193.696 31.2164 193.712 31.7394 193.811 32.2461C194.155 33.8642 195.189 34.7959 196.846 34.943C197.666 35.0247 198.503 35.0247 199.323 35.0247C199.717 35.0247 199.914 35.1391 199.963 35.5804C200.226 38.0485 199.077 39.4215 196.6 39.585C194.336 39.7484 192.17 39.3888 190.3 38.0976C188.659 36.9698 187.921 35.2372 187.806 33.3085C187.691 31.3308 187.724 29.3367 187.708 27.359C187.691 24.9563 187.708 22.5535 187.708 20.1345Z" fill="white"/>
<path d="M179.456 21.0501C179.456 24.4662 179.439 27.8823 179.456 31.2984C179.472 33.6193 180.555 34.7471 182.884 34.9433C183.59 35.0087 184.295 35.0087 185.001 35.0087C185.509 35.0087 185.69 35.2048 185.706 35.7278C185.838 38.2449 184.706 39.4872 182.179 39.5852C180.44 39.6506 178.75 39.5362 177.175 38.719C174.419 37.3133 173.599 34.8125 173.599 32.0012C173.566 24.1556 173.582 16.3101 173.582 8.4645C173.582 6.25794 173.582 6.25794 175.781 6.35601C177.995 6.45408 179.423 7.94146 179.439 10.2298C179.456 13.8583 179.439 17.4542 179.456 21.0501C179.439 21.0501 179.439 21.0501 179.456 21.0501Z" fill="white"/>
<path d="M26.4355 15.362C26.9441 15.0024 27.5019 14.7573 28.1254 14.6755C27.6332 15.1005 27.0754 15.3457 26.4355 15.362Z" fill="#F98698"/>
<path d="M79.5906 15.1984C79.3117 15.607 79 15.9666 78.5078 16.13C78.7703 15.7051 79.0656 15.3128 79.5906 15.1984Z" fill="#EE7486"/>
<path fill-rule="evenodd" clip-rule="evenodd" d="M54.3225 14.3312C54.3235 14.0707 54.3246 13.8097 54.3246 13.5477C54.3246 13.2829 54.3256 13.017 54.3266 12.7504C54.3297 11.9475 54.3328 11.1376 54.3082 10.3278C54.2589 8.20292 53.291 6.8136 51.5027 6.45401C51.0597 6.36575 50.5991 6.36575 50.1384 6.36575C49.8313 6.36575 49.5241 6.36575 49.2223 6.3396C48.5988 6.29056 48.4512 6.53574 48.4512 7.12415C48.4594 10.5157 48.4635 13.9032 48.4676 17.2907C48.4717 20.6782 48.4758 24.0657 48.484 27.4572C48.484 29.059 48.8121 30.6118 49.3863 32.0992C51.0597 36.3979 54.1277 39.1602 58.7214 39.814C63.6432 40.5168 67.794 38.9314 70.7799 34.8288C73.0931 31.6579 73.733 28.0293 73.3064 24.2209C72.9619 21.0991 71.7971 18.3041 69.3854 16.1792C66.5471 13.6785 63.2331 12.7468 59.5089 13.6948C57.6222 14.1852 56.2605 15.4601 55.1121 16.9801C55.068 17.0415 55.0299 17.1206 54.9911 17.2011C54.8851 17.4209 54.7735 17.6523 54.5214 17.5686C54.2382 17.4745 54.2776 17.2112 54.3159 16.9553C54.3308 16.8554 54.3456 16.7567 54.341 16.6696C54.3164 15.8855 54.3194 15.1107 54.3225 14.3312ZM57.2945 19.5136C55.1453 21.3116 54.3906 23.6326 54.3906 27.0813C54.3578 27.8822 54.5711 29.4187 55.1289 30.8897C56.1953 33.652 58.3609 35.025 61.4289 34.9432C63.9062 34.8615 65.9077 33.1943 66.7937 30.5465C67.7124 27.8005 67.4827 25.0546 66.6788 22.3576C65.3499 17.8465 59.7062 17.5032 57.2945 19.5136Z" fill="white"/>
<path fill-rule="evenodd" clip-rule="evenodd" d="M154.092 29.0917H158.653C159.065 29.0702 159.49 29.0557 159.925 29.0408C161.807 28.9763 163.869 28.9057 165.855 28.2418C167.512 27.7187 169.038 26.9669 169.53 25.1362C170.383 21.9817 169.645 19.154 167.512 16.7186C163.345 11.9786 155.306 12.3708 151.057 16.5388C147.529 20.0039 146.545 24.368 147.152 29.0753C147.808 34.1586 150.761 37.542 155.617 39.2582C158.554 40.288 161.557 40.1409 164.493 39.4544C167.692 38.7025 168.939 36.9373 168.89 33.75C168.89 33.2106 168.792 33.0635 168.283 33.4068C167.282 34.0932 166.167 34.5182 165.002 34.7797C162.41 35.3518 159.801 35.5806 157.242 34.5509C155.257 33.75 153.878 32.3443 153.239 30.3012C152.91 29.2715 153.058 29.0917 154.092 29.0917ZM153.731 25.2669H156.388C158.111 25.2996 159.817 25.1689 161.507 24.94C163.197 24.7112 164.263 23.943 164.411 22.7335C164.542 21.6384 164.296 20.625 163.591 19.7424C162.114 17.8954 158.439 17.405 156.159 18.7617C153.911 20.0856 153.091 22.1778 153.025 24.6785C153.009 25.2016 153.32 25.2669 153.731 25.2669Z" fill="white"/>
<path fill-rule="evenodd" clip-rule="evenodd" d="M88.14 13.5151C85.1377 13.2209 82.2174 13.4824 79.5924 15.1986C79.3955 15.3294 79.2233 15.4928 79.051 15.6563C78.8787 15.8197 78.7065 15.9832 78.5096 16.1139C77.5252 17.2254 77.0987 18.5166 77.1643 19.9877C77.1971 20.478 77.2791 20.7232 77.7877 20.3473C80.5604 18.3695 83.6939 17.9446 86.9751 18.2388C90.2071 18.5166 91.5196 19.9877 91.5853 23.2076C91.6017 23.8778 91.3392 24.0412 90.7321 24.0249C89.9118 23.9922 89.0751 23.9922 88.2548 24.0412C85.5478 24.172 82.8736 24.3681 80.3635 25.5123C77.919 26.6401 76.3276 28.3726 76.0979 31.1186C75.8354 34.1914 77.033 36.6268 79.6908 38.1142C83.6447 40.3371 87.8775 40.5169 92.0774 38.9151C94.9321 37.8363 96.6548 35.5971 97.0977 32.5569C97.5899 29.1899 97.4258 25.7901 97.1305 22.4231C96.9172 20.0857 96.1626 17.9609 94.4727 16.261C92.7337 14.4794 90.5353 13.7439 88.14 13.5151ZM91.1093 27.9637H88.9929C87.3687 27.9637 85.7445 28.0454 84.1859 28.6012C83.0703 28.9934 82.2992 29.7453 82.1024 30.9221C81.9055 32.2134 82.1188 33.4229 83.2836 34.2565C84.9898 35.4824 86.8929 35.5151 88.8125 35.0574C90.4203 34.6651 91.3226 33.521 91.5523 31.8701C91.6641 31.1124 91.6616 30.347 91.6591 29.5793C91.6579 29.2209 91.6567 28.862 91.6671 28.5031C91.6835 28.0781 91.4702 27.9637 91.1093 27.9637Z" fill="white"/>
</svg>
